{
    "asset" : {
        "generator" : "Khronos glTF Blender I/O v1.2.75",
        "version" : "2.0"
    },
    "scene" : 0,
    "scenes" : [
        {
            "name" : "Scene",
            "nodes" : [
                0,
                1,
                2,
                3,
                4
            ]
        }
    ],
    "nodes" : [
        {
            "mesh" : 0,
            "name" : "land"
        },
        {
            "mesh" : 1,
            "name" : "start",
            "translation" : [
                0,
                -24,
                242.63604736328125
            ]
        },
        {
            "mesh" : 2,
            "name" : "stairs",
            "translation" : [
                -0.8315656185150146,
                -17.43944549560547,
                238.73876953125
            ]
        },
        {
            "mesh" : 3,
            "name" : "castle"
        },
        {
            "mesh" : 4,
            "name" : "roof",
            "translation" : [
                0,
                44.14238357543945,
                0
            ]
        }
    ],
    "materials" : [
        {
            "doubleSided" : true,
            "emissiveFactor" : [
                0,
                0.28100964426994324,
                0.002407550113275647
            ],
            "name" : "Material.002",
            "pbrMetallicRoughness" : {}
        },
        {
            "doubleSided" : true,
            "emissiveFactor" : [
                0.9325056076049805,
                1,
                0.2853396236896515
            ],
            "name" : "Material.001",
            "pbrMetallicRoughness" : {}
        },
        {
            "doubleSided" : true,
            "emissiveFactor" : [
                0.15232522785663605,
                0.15232522785663605,
                0.15232522785663605
            ],
            "name" : "Material.003",
            "pbrMetallicRoughness" : {}
        },
        {
            "doubleSided" : true,
            "emissiveFactor" : [
                1,
                0.6578313708305359,
                0.1302952915430069
            ],
            "name" : "Material.004",
            "pbrMetallicRoughness" : {}
        },
        {
            "doubleSided" : true,
            "emissiveFactor" : [
                1,
                0.02264193817973137,
                0.004956942517310381
            ],
            "name" : "Material.005",
            "pbrMetallicRoughness" : {}
        }
    ],
    "meshes" : [
        {
            "name" : "Cylinder",
            "primitives" : [
                {
                    "attributes" : {
                        "POSITION" : 0,
                        "NORMAL" : 1,
                        "TEXCOORD_0" : 2
                    },
                    "indices" : 3,
                    "material" : 0
                }
            ]
        },
        {
            "name" : "Cylinder.001",
            "primitives" : [
                {
                    "attributes" : {
                        "POSITION" : 4,
                        "NORMAL" : 5,
                        "TEXCOORD_0" : 6
                    },
                    "indices" : 7,
                    "material" : 1
                }
            ]
        },
        {
            "name" : "Plane",
            "primitives" : [
                {
                    "attributes" : {
                        "POSITION" : 8,
                        "NORMAL" : 9,
                        "TEXCOORD_0" : 10
                    },
                    "indices" : 11,
                    "material" : 2
                }
            ]
        },
        {
            "name" : "Torus",
            "primitives" : [
                {
                    "attributes" : {
                        "POSITION" : 12,
                        "NORMAL" : 13,
                        "TEXCOORD_0" : 14
                    },
                    "indices" : 15,
                    "material" : 3
                }
            ]
        },
        {
            "name" : "Cone",
            "primitives" : [
                {
                    "attributes" : {
                        "POSITION" : 16,
                        "NORMAL" : 17,
                        "TEXCOORD_0" : 18
                    },
                    "indices" : 19,
                    "material" : 4
                }
            ]
        }
    ],
    "accessors" : [
        {
            "bufferView" : 0,
            "componentType" : 5126,
            "count" : 288,
            "max" : [
                53.01065444946289,
                1,
                53.01065444946289
            ],
            "min" : [
                -53.01065444946289,
                -98.21106719970703,
                -53.01065444946289
            ],
            "type" : "VEC3"
        },
        {
            "bufferView" : 1,
            "componentType" : 5126,
            "count" : 288,
            "type" : "VEC3"
        },
        {
            "bufferView" : 2,
            "componentType" : 5126,
            "count" : 288,
            "type" : "VEC2"
        },
        {
            "bufferView" : 3,
            "componentType" : 5123,
            "count" : 468,
            "type" : "SCALAR"
        },
        {
            "bufferView" : 4,
            "componentType" : 5126,
            "count" : 96,
            "max" : [
                3,
                8,
                3
            ],
            "min" : [
                -3,
                -8,
                -3
            ],
            "type" : "VEC3"
        },
        {
            "bufferView" : 5,
            "componentType" : 5126,
            "count" : 96,
            "type" : "VEC3"
        },
        {
            "bufferView" : 6,
            "componentType" : 5126,
            "count" : 96,
            "type" : "VEC2"
        },
        {
            "bufferView" : 7,
            "componentType" : 5123,
            "count" : 180,
            "type" : "SCALAR"
        },
        {
            "bufferView" : 8,
            "componentType" : 5126,
            "count" : 72,
            "max" : [
                10.166173934936523,
                18.152759552001953,
                1.1420449018478394
            ],
            "min" : [
                -0.7525067329406738,
                -18.20557975769043,
                -198.7707977294922
            ],
            "type" : "VEC3"
        },
        {
            "bufferView" : 9,
            "componentType" : 5126,
            "count" : 72,
            "type" : "VEC3"
        },
        {
            "bufferView" : 10,
            "componentType" : 5126,
            "count" : 72,
            "type" : "VEC2"
        },
        {
            "bufferView" : 11,
            "componentType" : 5123,
            "count" : 108,
            "type" : "SCALAR"
        },
        {
            "bufferView" : 12,
            "componentType" : 5126,
            "count" : 1344,
            "max" : [
                25,
                34.89384078979492,
                25
            ],
            "min" : [
                -25,
                -4.949477272475633e-09,
                -25
            ],
            "type" : "VEC3"
        },
        {
            "bufferView" : 13,
            "componentType" : 5126,
            "count" : 1344,
            "type" : "VEC3"
        },
        {
            "bufferView" : 14,
            "componentType" : 5126,
            "count" : 1344,
            "type" : "VEC2"
        },
        {
            "bufferView" : 15,
            "componentType" : 5123,
            "count" : 2016,
            "type" : "SCALAR"
        },
        {
            "bufferView" : 16,
            "componentType" : 5126,
            "count" : 128,
            "max" : [
                20,
                10,
                20
            ],
            "min" : [
                -20,
                -10,
                -20
            ],
            "type" : "VEC3"
        },
        {
            "bufferView" : 17,
            "componentType" : 5126,
            "count" : 128,
            "type" : "VEC3"
        },
        {
            "bufferView" : 18,
            "componentType" : 5126,
            "count" : 128,
            "type" : "VEC2"
        },
        {
            "bufferView" : 19,
            "componentType" : 5123,
            "count" : 186,
            "type" : "SCALAR"
        }
    ],
    "bufferViews" : [
        {
            "buffer" : 0,
            "byteLength" : 3456,
            "byteOffset" : 0
        },
        {
            "buffer" : 0,
            "byteLength" : 3456,
            "byteOffset" : 3456
        },
        {
            "buffer" : 0,
            "byteLength" : 2304,
            "byteOffset" : 6912
        },
        {
            "buffer" : 0,
            "byteLength" : 936,
            "byteOffset" : 9216
        },
        {
            "buffer" : 0,
            "byteLength" : 1152,
            "byteOffset" : 10152
        },
        {
            "buffer" : 0,
            "byteLength" : 1152,
            "byteOffset" : 11304
        },
        {
            "buffer" : 0,
            "byteLength" : 768,
            "byteOffset" : 12456
        },
        {
            "buffer" : 0,
            "byteLength" : 360,
            "byteOffset" : 13224
        },
        {
            "buffer" : 0,
            "byteLength" : 864,
            "byteOffset" : 13584
        },
        {
            "buffer" : 0,
            "byteLength" : 864,
            "byteOffset" : 14448
        },
        {
            "buffer" : 0,
            "byteLength" : 576,
            "byteOffset" : 15312
        },
        {
            "buffer" : 0,
            "byteLength" : 216,
            "byteOffset" : 15888
        },
        {
            "buffer" : 0,
            "byteLength" : 16128,
            "byteOffset" : 16104
        },
        {
            "buffer" : 0,
            "byteLength" : 16128,
            "byteOffset" : 32232
        },
        {
            "buffer" : 0,
            "byteLength" : 10752,
            "byteOffset" : 48360
        },
        {
            "buffer" : 0,
            "byteLength" : 4032,
            "byteOffset" : 59112
        },
        {
            "buffer" : 0,
            "byteLength" : 1536,
            "byteOffset" : 63144
        },
        {
            "buffer" : 0,
            "byteLength" : 1536,
            "byteOffset" : 64680
        },
        {
            "buffer" : 0,
            "byteLength" : 1024,
            "byteOffset" : 66216
        },
        {
            "buffer" : 0,
            "byteLength" : 372,
            "byteOffset" : 67240
        }
    ],
    "buffers" : [
        {
            "byteLength" : 67612,
            "uri" : "data:application/octet-stream;base64,"
        }
    ]
}
