{
    "asset" : {
        "generator" : "Khronos glTF Blender I/O v1.2.75",
        "version" : "2.0"
    },
    "scene" : 0,
    "scenes" : [
        {
            "name" : "Scene",
            "nodes" : [
                0,
                1,
                2,
                3,
                4
            ]
        }
    ],
    "nodes" : [
        {
            "mesh" : 0,
            "name" : "land"
        },
        {
            "mesh" : 1,
            "name" : "start",
            "translation" : [
                0,
                -24,
                242.63604736328125
            ]
        },
        {
            "mesh" : 2,
            "name" : "stairs",
            "translation" : [
                -0.8315656185150146,
                -17.43944549560547,
                238.73876953125
            ]
        },
        {
            "mesh" : 3,
            "name" : "castle"
        },
        {
            "mesh" : 4,
            "name" : "Circle",
            "translation" : [
                0,
                30.36344337463379,
                0
            ]
        }
    ],
    "materials" : [
        {
            "doubleSided" : true,
            "emissiveFactor" : [
                0,
                0.28100964426994324,
                0.002407550113275647
            ],
            "name" : "Material.002",
            "pbrMetallicRoughness" : {}
        },
        {
            "doubleSided" : true,
            "emissiveFactor" : [
                0.9325056076049805,
                1,
                0.2853396236896515
            ],
            "name" : "Material.001",
            "pbrMetallicRoughness" : {}
        },
        {
            "doubleSided" : true,
            "emissiveFactor" : [
                0.15232522785663605,
                0.15232522785663605,
                0.15232522785663605
            ],
            "name" : "Material.003",
            "pbrMetallicRoughness" : {}
        },
        {
            "doubleSided" : true,
            "emissiveFactor" : [
                1,
                0.6578313708305359,
                0.1302952915430069
            ],
            "name" : "Material.004",
            "pbrMetallicRoughness" : {}
        }
    ],
    "meshes" : [
        {
            "name" : "Cylinder",
            "primitives" : [
                {
                    "attributes" : {
                        "POSITION" : 0,
                        "NORMAL" : 1,
                        "TEXCOORD_0" : 2
                    },
                    "indices" : 3,
                    "material" : 0
                }
            ]
        },
        {
            "name" : "Cylinder.001",
            "primitives" : [
                {
                    "attributes" : {
                        "POSITION" : 4,
                        "NORMAL" : 5,
                        "TEXCOORD_0" : 6
                    },
                    "indices" : 7,
                    "material" : 1
                }
            ]
        },
        {
            "name" : "Plane",
            "primitives" : [
                {
                    "attributes" : {
                        "POSITION" : 8,
                        "NORMAL" : 9,
                        "TEXCOORD_0" : 10
                    },
                    "indices" : 11,
                    "material" : 2
                }
            ]
        },
        {
            "name" : "Torus",
            "primitives" : [
                {
                    "attributes" : {
                        "POSITION" : 12,
                        "NORMAL" : 13,
                        "TEXCOORD_0" : 14
                    },
                    "indices" : 15,
                    "material" : 3
                }
            ]
        },
        {
            "name" : "Circle",
            "primitives" : [
                {
                    "attributes" : {
                        "POSITION" : 16,
                        "NORMAL" : 17,
                        "TEXCOORD_0" : 18
                    },
                    "indices" : 19,
                    "material" : 2
                }
            ]
        }
    ],
    "accessors" : [
        {
            "bufferView" : 0,
            "componentType" : 5126,
            "count" : 224,
            "max" : [
                48.89790725708008,
                1,
                48.89790725708008
            ],
            "min" : [
                -48.89790725708008,
                -31.451135635375977,
                -48.89790725708008
            ],
            "type" : "VEC3"
        },
        {
            "bufferView" : 1,
            "componentType" : 5126,
            "count" : 224,
            "type" : "VEC3"
        },
        {
            "bufferView" : 2,
            "componentType" : 5126,
            "count" : 224,
            "type" : "VEC2"
        },
        {
            "bufferView" : 3,
            "componentType" : 5123,
            "count" : 372,
            "type" : "SCALAR"
        },
        {
            "bufferView" : 4,
            "componentType" : 5126,
            "count" : 96,
            "max" : [
                3,
                8,
                3
            ],
            "min" : [
                -3,
                -8,
                -3
            ],
            "type" : "VEC3"
        },
        {
            "bufferView" : 5,
            "componentType" : 5126,
            "count" : 96,
            "type" : "VEC3"
        },
        {
            "bufferView" : 6,
            "componentType" : 5126,
            "count" : 96,
            "type" : "VEC2"
        },
        {
            "bufferView" : 7,
            "componentType" : 5123,
            "count" : 180,
            "type" : "SCALAR"
        },
        {
            "bufferView" : 8,
            "componentType" : 5126,
            "count" : 72,
            "max" : [
                10.166173934936523,
                18.152759552001953,
                1.1420449018478394
            ],
            "min" : [
                -0.7525067329406738,
                -18.20557975769043,
                -198.7707977294922
            ],
            "type" : "VEC3"
        },
        {
            "bufferView" : 9,
            "componentType" : 5126,
            "count" : 72,
            "type" : "VEC3"
        },
        {
            "bufferView" : 10,
            "componentType" : 5126,
            "count" : 72,
            "type" : "VEC2"
        },
        {
            "bufferView" : 11,
            "componentType" : 5123,
            "count" : 108,
            "type" : "SCALAR"
        },
        {
            "bufferView" : 12,
            "componentType" : 5126,
            "count" : 2304,
            "max" : [
                25,
                31.222248077392578,
                25
            ],
            "min" : [
                -25,
                -4.949477272475633e-09,
                -25
            ],
            "type" : "VEC3"
        },
        {
            "bufferView" : 13,
            "componentType" : 5126,
            "count" : 2304,
            "type" : "VEC3"
        },
        {
            "bufferView" : 14,
            "componentType" : 5126,
            "count" : 2304,
            "type" : "VEC2"
        },
        {
            "bufferView" : 15,
            "componentType" : 5123,
            "count" : 3456,
            "type" : "SCALAR"
        },
        {
            "bufferView" : 16,
            "componentType" : 5126,
            "count" : 128,
            "max" : [
                22.16023063659668,
                -5.449059608508833e-05,
                22.160234451293945
            ],
            "min" : [
                -22.16022491455078,
                -5.996174877509475e-05,
                -22.160221099853516
            ],
            "type" : "VEC3"
        },
        {
            "bufferView" : 17,
            "componentType" : 5126,
            "count" : 128,
            "type" : "VEC3"
        },
        {
            "bufferView" : 18,
            "componentType" : 5126,
            "count" : 128,
            "type" : "VEC2"
        },
        {
            "bufferView" : 19,
            "componentType" : 5123,
            "count" : 192,
            "type" : "SCALAR"
        }
    ],
    "bufferViews" : [
        {
            "buffer" : 0,
            "byteLength" : 2688,
            "byteOffset" : 0
        },
        {
            "buffer" : 0,
            "byteLength" : 2688,
            "byteOffset" : 2688
        },
        {
            "buffer" : 0,
            "byteLength" : 1792,
            "byteOffset" : 5376
        },
        {
            "buffer" : 0,
            "byteLength" : 744,
            "byteOffset" : 7168
        },
        {
            "buffer" : 0,
            "byteLength" : 1152,
            "byteOffset" : 7912
        },
        {
            "buffer" : 0,
            "byteLength" : 1152,
            "byteOffset" : 9064
        },
        {
            "buffer" : 0,
            "byteLength" : 768,
            "byteOffset" : 10216
        },
        {
            "buffer" : 0,
            "byteLength" : 360,
            "byteOffset" : 10984
        },
        {
            "buffer" : 0,
            "byteLength" : 864,
            "byteOffset" : 11344
        },
        {
            "buffer" : 0,
            "byteLength" : 864,
            "byteOffset" : 12208
        },
        {
            "buffer" : 0,
            "byteLength" : 576,
            "byteOffset" : 13072
        },
        {
            "buffer" : 0,
            "byteLength" : 216,
            "byteOffset" : 13648
        },
        {
            "buffer" : 0,
            "byteLength" : 27648,
            "byteOffset" : 13864
        },
        {
            "buffer" : 0,
            "byteLength" : 27648,
            "byteOffset" : 41512
        },
        {
            "buffer" : 0,
            "byteLength" : 18432,
            "byteOffset" : 69160
        },
        {
            "buffer" : 0,
            "byteLength" : 6912,
            "byteOffset" : 87592
        },
        {
            "buffer" : 0,
            "byteLength" : 1536,
            "byteOffset" : 94504
        },
        {
            "buffer" : 0,
            "byteLength" : 1536,
            "byteOffset" : 96040
        },
        {
            "buffer" : 0,
            "byteLength" : 1024,
            "byteOffset" : 97576
        },
        {
            "buffer" : 0,
            "byteLength" : 384,
            "byteOffset" : 98600
        }
    ],
    "buffers" : [
        {
            "byteLength" : 98984,
            "uri" : "data:application/octet-stream;base64,"
        }
    ]
}
