{
    "asset" : {
        "generator" : "Khronos glTF Blender I/O v1.2.75",
        "version" : "2.0"
    },
    "scene" : 0,
    "scenes" : [
        {
            "name" : "Scene",
            "nodes" : [
                0,
                1,
                2,
                3,
                4,
                5
            ]
        }
    ],
    "nodes" : [
        {
            "mesh" : 0,
            "name" : "dragon_body"
        },
        {
            "mesh" : 1,
            "name" : "eyes"
        },
        {
            "mesh" : 2,
            "name" : "teeth_top"
        },
        {
            "mesh" : 3,
            "name" : "teeth_bottom",
            "rotation" : [
                0.2115330696105957,
                0,
                0,
                0.9773708581924438
            ],
            "scale" : [
                1,
                -1,
                1
            ],
            "translation" : [
                0,
                -0.4323275685310364,
                -0.17906740307807922
            ]
        },
        {
            "mesh" : 4,
            "name" : "mouth_bottom"
        },
        {
            "mesh" : 5,
            "name" : "tongue"
        }
    ],
    "materials" : [
        {
            "doubleSided" : true,
            "emissiveFactor" : [
                0,
                0.04445475712418556,
                0.0020425780676305294
            ],
            "name" : "dragon_skin",
            "pbrMetallicRoughness" : {}
        },
        {
            "doubleSided" : true,
            "emissiveFactor" : [
                1,
                1,
                1
            ],
            "emissiveTexture" : {
                "index" : 0,
                "texCoord" : 0
            },
            "name" : "dragon_eyes",
            "pbrMetallicRoughness" : {}
        },
        {
            "doubleSided" : true,
            "emissiveFactor" : [
                1,
                1,
                1
            ],
            "name" : "dragon_teeth",
            "pbrMetallicRoughness" : {}
        },
        {
            "doubleSided" : true,
            "emissiveFactor" : [
                0.570470929145813,
                0,
                0.0037212963216006756
            ],
            "name" : "dragon_tongue",
            "pbrMetallicRoughness" : {}
        }
    ],
    "meshes" : [
        {
            "name" : "Plane",
            "primitives" : [
                {
                    "attributes" : {
                        "POSITION" : 0,
                        "NORMAL" : 1,
                        "TEXCOORD_0" : 2
                    },
                    "indices" : 3,
                    "material" : 0
                }
            ]
        },
        {
            "name" : "Sphere",
            "primitives" : [
                {
                    "attributes" : {
                        "POSITION" : 4,
                        "NORMAL" : 5,
                        "TEXCOORD_0" : 6
                    },
                    "indices" : 7,
                    "material" : 1
                }
            ]
        },
        {
            "name" : "Cone",
            "primitives" : [
                {
                    "attributes" : {
                        "POSITION" : 8,
                        "NORMAL" : 9,
                        "TEXCOORD_0" : 10
                    },
                    "indices" : 11,
                    "material" : 2
                }
            ]
        },
        {
            "name" : "Cone.001",
            "primitives" : [
                {
                    "attributes" : {
                        "POSITION" : 12,
                        "NORMAL" : 13,
                        "TEXCOORD_0" : 14
                    },
                    "indices" : 11,
                    "material" : 2
                }
            ]
        },
        {
            "name" : "Cylinder",
            "primitives" : [
                {
                    "attributes" : {
                        "POSITION" : 15,
                        "NORMAL" : 16,
                        "TEXCOORD_0" : 17
                    },
                    "indices" : 18,
                    "material" : 0
                }
            ]
        },
        {
            "name" : "Cylinder.001",
            "primitives" : [
                {
                    "attributes" : {
                        "POSITION" : 19,
                        "NORMAL" : 20,
                        "TEXCOORD_0" : 21
                    },
                    "indices" : 22,
                    "material" : 3
                }
            ]
        }
    ],
    "textures" : [
        {
            "source" : 0
        }
    ],
    "images" : [
        {
            "bufferView" : 8,
            "mimeType" : "image/png",
            "name" : "dragon_eyes"
        }
    ],
    "accessors" : [
        {
            "bufferView" : 0,
            "componentType" : 5126,
            "count" : 248,
            "max" : [
                0.5770002007484436,
                0.45928633213043213,
                0.3870638608932495
            ],
            "min" : [
                -0.5770002007484436,
                -5.1038818359375,
                -4.997003555297852
            ],
            "type" : "VEC3"
        },
        {
            "bufferView" : 1,
            "componentType" : 5126,
            "count" : 248,
            "type" : "VEC3"
        },
        {
            "bufferView" : 2,
            "componentType" : 5126,
            "count" : 248,
            "type" : "VEC2"
        },
        {
            "bufferView" : 3,
            "componentType" : 5123,
            "count" : 1392,
            "type" : "SCALAR"
        },
        {
            "bufferView" : 4,
            "componentType" : 5126,
            "count" : 480,
            "max" : [
                0.27096933126449585,
                0.527166485786438,
                -0.14529523253440857
            ],
            "min" : [
                -0.27096933126449585,
                0.15468433499336243,
                -0.3227853775024414
            ],
            "type" : "VEC3"
        },
        {
            "bufferView" : 5,
            "componentType" : 5126,
            "count" : 480,
            "type" : "VEC3"
        },
        {
            "bufferView" : 6,
            "componentType" : 5126,
            "count" : 480,
            "type" : "VEC2"
        },
        {
            "bufferView" : 7,
            "componentType" : 5123,
            "count" : 672,
            "type" : "SCALAR"
        },
        {
            "bufferView" : 9,
            "componentType" : 5126,
            "count" : 384,
            "max" : [
                0.18802112340927124,
                -0.08488836139440536,
                0.22751402854919434
            ],
            "min" : [
                -0.18754246830940247,
                -0.20625323057174683,
                -0.2240067720413208
            ],
            "type" : "VEC3"
        },
        {
            "bufferView" : 10,
            "componentType" : 5126,
            "count" : 384,
            "type" : "VEC3"
        },
        {
            "bufferView" : 11,
            "componentType" : 5126,
            "count" : 384,
            "type" : "VEC2"
        },
        {
            "bufferView" : 12,
            "componentType" : 5123,
            "count" : 504,
            "type" : "SCALAR"
        },
        {
            "bufferView" : 13,
            "componentType" : 5126,
            "count" : 384,
            "max" : [
                0.18802112340927124,
                -0.08488836139440536,
                0.22751402854919434
            ],
            "min" : [
                -0.18754246830940247,
                -0.20625323057174683,
                -0.2240067720413208
            ],
            "type" : "VEC3"
        },
        {
            "bufferView" : 14,
            "componentType" : 5126,
            "count" : 384,
            "type" : "VEC3"
        },
        {
            "bufferView" : 15,
            "componentType" : 5126,
            "count" : 384,
            "type" : "VEC2"
        },
        {
            "bufferView" : 16,
            "componentType" : 5126,
            "count" : 80,
            "max" : [
                0.21170030534267426,
                -0.21903914213180542,
                0.07147404551506042
            ],
            "min" : [
                -0.21170030534267426,
                -0.5108632445335388,
                -0.7669687271118164
            ],
            "type" : "VEC3"
        },
        {
            "bufferView" : 17,
            "componentType" : 5126,
            "count" : 80,
            "type" : "VEC3"
        },
        {
            "bufferView" : 18,
            "componentType" : 5126,
            "count" : 80,
            "type" : "VEC2"
        },
        {
            "bufferView" : 19,
            "componentType" : 5123,
            "count" : 132,
            "type" : "SCALAR"
        },
        {
            "bufferView" : 20,
            "componentType" : 5126,
            "count" : 208,
            "max" : [
                0.13422127068042755,
                -0.23138172924518585,
                0.3098534047603607
            ],
            "min" : [
                -0.04488162696361542,
                -0.7162373065948486,
                -0.27340447902679443
            ],
            "type" : "VEC3"
        },
        {
            "bufferView" : 21,
            "componentType" : 5126,
            "count" : 208,
            "type" : "VEC3"
        },
        {
            "bufferView" : 22,
            "componentType" : 5126,
            "count" : 208,
            "type" : "VEC2"
        },
        {
            "bufferView" : 23,
            "componentType" : 5123,
            "count" : 324,
            "type" : "SCALAR"
        }
    ],
    "bufferViews" : [
        {
            "buffer" : 0,
            "byteLength" : 2976,
            "byteOffset" : 0
        },
        {
            "buffer" : 0,
            "byteLength" : 2976,
            "byteOffset" : 2976
        },
        {
            "buffer" : 0,
            "byteLength" : 1984,
            "byteOffset" : 5952
        },
        {
            "buffer" : 0,
            "byteLength" : 2784,
            "byteOffset" : 7936
        },
        {
            "buffer" : 0,
            "byteLength" : 5760,
            "byteOffset" : 10720
        },
        {
            "buffer" : 0,
            "byteLength" : 5760,
            "byteOffset" : 16480
        },
        {
            "buffer" : 0,
            "byteLength" : 3840,
            "byteOffset" : 22240
        },
        {
            "buffer" : 0,
            "byteLength" : 1344,
            "byteOffset" : 26080
        },
        {
            "buffer" : 0,
            "byteLength" : 212,
            "byteOffset" : 27424
        },
        {
            "buffer" : 0,
            "byteLength" : 4608,
            "byteOffset" : 27636
        },
        {
            "buffer" : 0,
            "byteLength" : 4608,
            "byteOffset" : 32244
        },
        {
            "buffer" : 0,
            "byteLength" : 3072,
            "byteOffset" : 36852
        },
        {
            "buffer" : 0,
            "byteLength" : 1008,
            "byteOffset" : 39924
        },
        {
            "buffer" : 0,
            "byteLength" : 4608,
            "byteOffset" : 40932
        },
        {
            "buffer" : 0,
            "byteLength" : 4608,
            "byteOffset" : 45540
        },
        {
            "buffer" : 0,
            "byteLength" : 3072,
            "byteOffset" : 50148
        },
        {
            "buffer" : 0,
            "byteLength" : 960,
            "byteOffset" : 53220
        },
        {
            "buffer" : 0,
            "byteLength" : 960,
            "byteOffset" : 54180
        },
        {
            "buffer" : 0,
            "byteLength" : 640,
            "byteOffset" : 55140
        },
        {
            "buffer" : 0,
            "byteLength" : 264,
            "byteOffset" : 55780
        },
        {
            "buffer" : 0,
            "byteLength" : 2496,
            "byteOffset" : 56044
        },
        {
            "buffer" : 0,
            "byteLength" : 2496,
            "byteOffset" : 58540
        },
        {
            "buffer" : 0,
            "byteLength" : 1664,
            "byteOffset" : 61036
        },
        {
            "buffer" : 0,
            "byteLength" : 648,
            "byteOffset" : 62700
        }
    ],
    "buffers" : [
        {
            "byteLength" : 63348,
            "uri" : "data:application/octet-stream;base64,"
        }
    ]
}
