{
    "asset" : {
        "generator" : "Khronos glTF Blender I/O v1.2.75",
        "version" : "2.0"
    },
    "scene" : 0,
    "scenes" : [
        {
            "name" : "Scene",
            "nodes" : [
                0,
                1,
                2,
                3,
                4,
                5
            ]
        }
    ],
    "nodes" : [
        {
            "mesh" : 0,
            "name" : "Plane"
        },
        {
            "mesh" : 1,
            "name" : "head",
            "translation" : [
                -0.005981923080980778,
                1.7168446779251099,
                -0.034455884248018265
            ]
        },
        {
            "mesh" : 2,
            "name" : "eyebrows",
            "translation" : [
                -0.005981923080980778,
                1.7168446779251099,
                -0.034455884248018265
            ]
        },
        {
            "mesh" : 3,
            "name" : "eyelashes",
            "translation" : [
                -0.005981923080980778,
                1.7168446779251099,
                -0.034455884248018265
            ]
        },
        {
            "mesh" : 4,
            "name" : "eye",
            "translation" : [
                -0.005981923080980778,
                1.7168446779251099,
                -0.034455884248018265
            ]
        },
        {
            "mesh" : 5,
            "name" : "hair_retopo"
        }
    ],
    "materials" : [
        {
            "doubleSided" : true,
            "emissiveFactor" : [
                1,
                1,
                1
            ],
            "name" : "neckerchief",
            "pbrMetallicRoughness" : {}
        },
        {
            "doubleSided" : true,
            "emissiveFactor" : [
                1,
                1,
                1
            ],
            "emissiveTexture" : {
                "index" : 0,
                "texCoord" : 0
            },
            "name" : "body",
            "pbrMetallicRoughness" : {}
        },
        {
            "doubleSided" : true,
            "emissiveFactor" : [
                0.013410618528723717,
                0,
                0.0011679993476718664
            ],
            "name" : "eyebrows",
            "pbrMetallicRoughness" : {}
        },
        {
            "doubleSided" : true,
            "emissiveFactor" : [
                1,
                1,
                1
            ],
            "emissiveTexture" : {
                "index" : 1,
                "texCoord" : 0
            },
            "name" : "eyes",
            "pbrMetallicRoughness" : {}
        }
    ],
    "meshes" : [
        {
            "name" : "Plane.004",
            "primitives" : [
                {
                    "attributes" : {
                        "POSITION" : 0,
                        "NORMAL" : 1,
                        "TEXCOORD_0" : 2
                    },
                    "indices" : 3,
                    "material" : 0
                }
            ]
        },
        {
            "name" : "Plane",
            "primitives" : [
                {
                    "attributes" : {
                        "POSITION" : 4,
                        "NORMAL" : 5,
                        "TEXCOORD_0" : 6,
                        "COLOR_0" : 7,
                        "JOINTS_0" : 8,
                        "WEIGHTS_0" : 9
                    },
                    "indices" : 10,
                    "material" : 1
                }
            ]
        },
        {
            "name" : "Plane.001",
            "primitives" : [
                {
                    "attributes" : {
                        "POSITION" : 11,
                        "NORMAL" : 12,
                        "TEXCOORD_0" : 13
                    },
                    "indices" : 14,
                    "material" : 2
                }
            ]
        },
        {
            "name" : "Plane.002",
            "primitives" : [
                {
                    "attributes" : {
                        "POSITION" : 15,
                        "NORMAL" : 16,
                        "TEXCOORD_0" : 17
                    },
                    "indices" : 18,
                    "material" : 2
                }
            ]
        },
        {
            "name" : "Plane.003",
            "primitives" : [
                {
                    "attributes" : {
                        "POSITION" : 19,
                        "NORMAL" : 20,
                        "TEXCOORD_0" : 21
                    },
                    "indices" : 22,
                    "material" : 3
                }
            ]
        },
        {
            "name" : "Cylinder",
            "primitives" : [
                {
                    "attributes" : {
                        "POSITION" : 23,
                        "NORMAL" : 24,
                        "TEXCOORD_0" : 25,
                        "COLOR_0" : 26
                    },
                    "indices" : 27,
                    "material" : 2
                }
            ]
        }
    ],
    "textures" : [
        {
            "source" : 0
        },
        {
            "source" : 1
        }
    ],
    "images" : [
        {
            "bufferView" : 11,
            "mimeType" : "image/png",
            "name" : "body"
        },
        {
            "bufferView" : 24,
            "mimeType" : "image/png",
            "name" : "eyes"
        }
    ],
    "accessors" : [
        {
            "bufferView" : 0,
            "componentType" : 5126,
            "count" : 312,
            "max" : [
                0.16330406069755554,
                1.2156344652175903,
                0.16516642272472382
            ],
            "min" : [
                -0.19162073731422424,
                0.9739224314689636,
                0.016934147104620934
            ],
            "type" : "VEC3"
        },
        {
            "bufferView" : 1,
            "componentType" : 5126,
            "count" : 312,
            "type" : "VEC3"
        },
        {
            "bufferView" : 2,
            "componentType" : 5126,
            "count" : 312,
            "type" : "VEC2"
        },
        {
            "bufferView" : 3,
            "componentType" : 5123,
            "count" : 468,
            "type" : "SCALAR"
        },
        {
            "bufferView" : 4,
            "componentType" : 5126,
            "count" : 6832,
            "max" : [
                0.9605944156646729,
                0.2872755527496338,
                0.4148758053779602
            ],
            "min" : [
                -0.9605944156646729,
                -4.104602813720703,
                -0.42682480812072754
            ],
            "type" : "VEC3"
        },
        {
            "bufferView" : 5,
            "componentType" : 5126,
            "count" : 6832,
            "type" : "VEC3"
        },
        {
            "bufferView" : 6,
            "componentType" : 5126,
            "count" : 6832,
            "type" : "VEC2"
        },
        {
            "bufferView" : 7,
            "componentType" : 5126,
            "count" : 6832,
            "type" : "VEC4"
        },
        {
            "bufferView" : 8,
            "componentType" : 5123,
            "count" : 6832,
            "type" : "VEC4"
        },
        {
            "bufferView" : 9,
            "componentType" : 5126,
            "count" : 6832,
            "type" : "VEC4"
        },
        {
            "bufferView" : 10,
            "componentType" : 5123,
            "count" : 37818,
            "type" : "SCALAR"
        },
        {
            "bufferView" : 12,
            "componentType" : 5126,
            "count" : 204,
            "max" : [
                0.2258586585521698,
                -0.02632315643131733,
                0.28346046805381775
            ],
            "min" : [
                -0.2258586585521698,
                -0.08815985172986984,
                0.1589605212211609
            ],
            "type" : "VEC3"
        },
        {
            "bufferView" : 13,
            "componentType" : 5126,
            "count" : 204,
            "type" : "VEC3"
        },
        {
            "bufferView" : 14,
            "componentType" : 5126,
            "count" : 204,
            "type" : "VEC2"
        },
        {
            "bufferView" : 15,
            "componentType" : 5123,
            "count" : 1200,
            "type" : "SCALAR"
        },
        {
            "bufferView" : 16,
            "componentType" : 5126,
            "count" : 420,
            "max" : [
                0.24273374676704407,
                -0.08207163214683533,
                0.2450273185968399
            ],
            "min" : [
                -0.24273374676704407,
                -0.2488676905632019,
                0.1113569512963295
            ],
            "type" : "VEC3"
        },
        {
            "bufferView" : 17,
            "componentType" : 5126,
            "count" : 420,
            "type" : "VEC3"
        },
        {
            "bufferView" : 18,
            "componentType" : 5126,
            "count" : 420,
            "type" : "VEC2"
        },
        {
            "bufferView" : 19,
            "componentType" : 5123,
            "count" : 2496,
            "type" : "SCALAR"
        },
        {
            "bufferView" : 20,
            "componentType" : 5126,
            "count" : 50,
            "max" : [
                0.15451538562774658,
                -0.12494789808988571,
                0.22991319000720978
            ],
            "min" : [
                -0.15451538562774658,
                -0.2234024703502655,
                0.20135118067264557
            ],
            "type" : "VEC3"
        },
        {
            "bufferView" : 21,
            "componentType" : 5126,
            "count" : 50,
            "type" : "VEC3"
        },
        {
            "bufferView" : 22,
            "componentType" : 5126,
            "count" : 50,
            "type" : "VEC2"
        },
        {
            "bufferView" : 23,
            "componentType" : 5123,
            "count" : 192,
            "type" : "SCALAR"
        },
        {
            "bufferView" : 25,
            "componentType" : 5126,
            "count" : 6310,
            "max" : [
                0.6776614785194397,
                2.0557737350463867,
                0.2194545567035675
            ],
            "min" : [
                -0.6776614785194397,
                1.131284236907959,
                -0.4908806085586548
            ],
            "type" : "VEC3"
        },
        {
            "bufferView" : 26,
            "componentType" : 5126,
            "count" : 6310,
            "type" : "VEC3"
        },
        {
            "bufferView" : 27,
            "componentType" : 5126,
            "count" : 6310,
            "type" : "VEC2"
        },
        {
            "bufferView" : 28,
            "componentType" : 5126,
            "count" : 6310,
            "type" : "VEC4"
        },
        {
            "bufferView" : 29,
            "componentType" : 5123,
            "count" : 17856,
            "type" : "SCALAR"
        }
    ],
    "bufferViews" : [
        {
            "buffer" : 0,
            "byteLength" : 3744,
            "byteOffset" : 0
        },
        {
            "buffer" : 0,
            "byteLength" : 3744,
            "byteOffset" : 3744
        },
        {
            "buffer" : 0,
            "byteLength" : 2496,
            "byteOffset" : 7488
        },
        {
            "buffer" : 0,
            "byteLength" : 936,
            "byteOffset" : 9984
        },
        {
            "buffer" : 0,
            "byteLength" : 81984,
            "byteOffset" : 10920
        },
        {
            "buffer" : 0,
            "byteLength" : 81984,
            "byteOffset" : 92904
        },
        {
            "buffer" : 0,
            "byteLength" : 54656,
            "byteOffset" : 174888
        },
        {
            "buffer" : 0,
            "byteLength" : 109312,
            "byteOffset" : 229544
        },
        {
            "buffer" : 0,
            "byteLength" : 54656,
            "byteOffset" : 338856
        },
        {
            "buffer" : 0,
            "byteLength" : 109312,
            "byteOffset" : 393512
        },
        {
            "buffer" : 0,
            "byteLength" : 75636,
            "byteOffset" : 502824
        },
        {
            "buffer" : 0,
            "byteLength" : 2721,
            "byteOffset" : 578460
        },
        {
            "buffer" : 0,
            "byteLength" : 2448,
            "byteOffset" : 581184
        },
        {
            "buffer" : 0,
            "byteLength" : 2448,
            "byteOffset" : 583632
        },
        {
            "buffer" : 0,
            "byteLength" : 1632,
            "byteOffset" : 586080
        },
        {
            "buffer" : 0,
            "byteLength" : 2400,
            "byteOffset" : 587712
        },
        {
            "buffer" : 0,
            "byteLength" : 5040,
            "byteOffset" : 590112
        },
        {
            "buffer" : 0,
            "byteLength" : 5040,
            "byteOffset" : 595152
        },
        {
            "buffer" : 0,
            "byteLength" : 3360,
            "byteOffset" : 600192
        },
        {
            "buffer" : 0,
            "byteLength" : 4992,
            "byteOffset" : 603552
        },
        {
            "buffer" : 0,
            "byteLength" : 600,
            "byteOffset" : 608544
        },
        {
            "buffer" : 0,
            "byteLength" : 600,
            "byteOffset" : 609144
        },
        {
            "buffer" : 0,
            "byteLength" : 400,
            "byteOffset" : 609744
        },
        {
            "buffer" : 0,
            "byteLength" : 384,
            "byteOffset" : 610144
        },
        {
            "buffer" : 0,
            "byteLength" : 1333,
            "byteOffset" : 610528
        },
        {
            "buffer" : 0,
            "byteLength" : 75720,
            "byteOffset" : 611864
        },
        {
            "buffer" : 0,
            "byteLength" : 75720,
            "byteOffset" : 687584
        },
        {
            "buffer" : 0,
            "byteLength" : 50480,
            "byteOffset" : 763304
        },
        {
            "buffer" : 0,
            "byteLength" : 100960,
            "byteOffset" : 813784
        },
        {
            "buffer" : 0,
            "byteLength" : 35712,
            "byteOffset" : 914744
        }
    ],
    "buffers" : [
        {
            "byteLength" : 950456,
            "uri" : "data:application/octet-stream;base64,"
        }
    ]
}
