{
    "asset" : {
        "generator" : "Khronos glTF Blender I/O v1.2.75",
        "version" : "2.0"
    },
    "scene" : 0,
    "scenes" : [
        {
            "name" : "Scene",
            "nodes" : [
                0,
                1,
                2,
                3,
                4
            ]
        }
    ],
    "nodes" : [
        {
            "mesh" : 0,
            "name" : "head",
            "translation" : [
                -0.005981923080980778,
                1.7168446779251099,
                -0.034455884248018265
            ]
        },
        {
            "mesh" : 1,
            "name" : "eyebrows",
            "translation" : [
                -0.005981923080980778,
                1.7168446779251099,
                -0.034455884248018265
            ]
        },
        {
            "mesh" : 2,
            "name" : "eyelashes",
            "translation" : [
                -0.005981923080980778,
                1.7168446779251099,
                -0.034455884248018265
            ]
        },
        {
            "mesh" : 3,
            "name" : "eye",
            "translation" : [
                -0.005981923080980778,
                1.7168446779251099,
                -0.034455884248018265
            ]
        },
        {
            "mesh" : 4,
            "name" : "hair_retopo"
        }
    ],
    "materials" : [
        {
            "doubleSided" : true,
            "emissiveFactor" : [
                1,
                1,
                1
            ],
            "emissiveTexture" : {
                "index" : 0,
                "texCoord" : 0
            },
            "name" : "body",
            "pbrMetallicRoughness" : {}
        },
        {
            "doubleSided" : true,
            "emissiveFactor" : [
                1,
                1,
                1
            ],
            "emissiveTexture" : {
                "index" : 1,
                "texCoord" : 0
            },
            "name" : "hair",
            "pbrMetallicRoughness" : {}
        },
        {
            "doubleSided" : true,
            "emissiveFactor" : [
                0.038769159466028214,
                0.007780326530337334,
                0.000491004902869463
            ],
            "name" : "Material",
            "pbrMetallicRoughness" : {}
        },
        {
            "doubleSided" : true,
            "emissiveFactor" : [
                1,
                1,
                1
            ],
            "emissiveTexture" : {
                "index" : 2,
                "texCoord" : 0
            },
            "name" : "eye",
            "pbrMetallicRoughness" : {}
        }
    ],
    "meshes" : [
        {
            "name" : "Plane",
            "primitives" : [
                {
                    "attributes" : {
                        "POSITION" : 0,
                        "NORMAL" : 1,
                        "TEXCOORD_0" : 2,
                        "COLOR_0" : 3,
                        "JOINTS_0" : 4,
                        "WEIGHTS_0" : 5
                    },
                    "indices" : 6,
                    "material" : 0
                }
            ]
        },
        {
            "name" : "Plane.001",
            "primitives" : [
                {
                    "attributes" : {
                        "POSITION" : 7,
                        "NORMAL" : 8,
                        "TEXCOORD_0" : 9
                    },
                    "indices" : 10,
                    "material" : 1
                }
            ]
        },
        {
            "name" : "Plane.002",
            "primitives" : [
                {
                    "attributes" : {
                        "POSITION" : 11,
                        "NORMAL" : 12,
                        "TEXCOORD_0" : 13
                    },
                    "indices" : 14,
                    "material" : 2
                }
            ]
        },
        {
            "name" : "Plane.003",
            "primitives" : [
                {
                    "attributes" : {
                        "POSITION" : 15,
                        "NORMAL" : 16,
                        "TEXCOORD_0" : 17,
                        "COLOR_0" : 18
                    },
                    "indices" : 19,
                    "material" : 3
                }
            ]
        },
        {
            "name" : "Cylinder",
            "primitives" : [
                {
                    "attributes" : {
                        "POSITION" : 20,
                        "NORMAL" : 21,
                        "TEXCOORD_0" : 22,
                        "COLOR_0" : 23
                    },
                    "indices" : 24,
                    "material" : 1
                }
            ]
        }
    ],
    "textures" : [
        {
            "source" : 0
        },
        {
            "source" : 1
        },
        {
            "source" : 2
        }
    ],
    "images" : [
        {
            "bufferView" : 7,
            "mimeType" : "image/png",
            "name" : "body"
        },
        {
            "bufferView" : 12,
            "mimeType" : "image/png",
            "name" : "hair"
        },
        {
            "bufferView" : 22,
            "mimeType" : "image/png",
            "name" : "eyes"
        }
    ],
    "accessors" : [
        {
            "bufferView" : 0,
            "componentType" : 5126,
            "count" : 24633,
            "max" : [
                1.8107755184173584,
                0.24365249276161194,
                0.45497599244117737
            ],
            "min" : [
                -1.8107755184173584,
                -4.1658711433410645,
                -0.3709932565689087
            ],
            "type" : "VEC3"
        },
        {
            "bufferView" : 1,
            "componentType" : 5126,
            "count" : 24633,
            "type" : "VEC3"
        },
        {
            "bufferView" : 2,
            "componentType" : 5126,
            "count" : 24633,
            "type" : "VEC2"
        },
        {
            "bufferView" : 3,
            "componentType" : 5126,
            "count" : 24633,
            "type" : "VEC4"
        },
        {
            "bufferView" : 4,
            "componentType" : 5123,
            "count" : 24633,
            "type" : "VEC4"
        },
        {
            "bufferView" : 5,
            "componentType" : 5126,
            "count" : 24633,
            "type" : "VEC4"
        },
        {
            "bufferView" : 6,
            "componentType" : 5123,
            "count" : 40146,
            "type" : "SCALAR"
        },
        {
            "bufferView" : 8,
            "componentType" : 5126,
            "count" : 204,
            "max" : [
                0.2278093844652176,
                -0.08270812034606934,
                0.28294822573661804
            ],
            "min" : [
                -0.2278093844652176,
                -0.13990181684494019,
                0.15503470599651337
            ],
            "type" : "VEC3"
        },
        {
            "bufferView" : 9,
            "componentType" : 5126,
            "count" : 204,
            "type" : "VEC3"
        },
        {
            "bufferView" : 10,
            "componentType" : 5126,
            "count" : 204,
            "type" : "VEC2"
        },
        {
            "bufferView" : 11,
            "componentType" : 5123,
            "count" : 1200,
            "type" : "SCALAR"
        },
        {
            "bufferView" : 13,
            "componentType" : 5126,
            "count" : 372,
            "max" : [
                0.24203836917877197,
                -0.12272468954324722,
                0.24469023942947388
            ],
            "min" : [
                -0.24203836917877197,
                -0.21569481492042542,
                0.12385206669569016
            ],
            "type" : "VEC3"
        },
        {
            "bufferView" : 14,
            "componentType" : 5126,
            "count" : 372,
            "type" : "VEC3"
        },
        {
            "bufferView" : 15,
            "componentType" : 5126,
            "count" : 372,
            "type" : "VEC2"
        },
        {
            "bufferView" : 16,
            "componentType" : 5123,
            "count" : 2208,
            "type" : "SCALAR"
        },
        {
            "bufferView" : 17,
            "componentType" : 5126,
            "count" : 50,
            "max" : [
                0.1513063609600067,
                -0.12561872601509094,
                0.22578604519367218
            ],
            "min" : [
                -0.1513063609600067,
                -0.2168349027633667,
                0.19798697531223297
            ],
            "type" : "VEC3"
        },
        {
            "bufferView" : 18,
            "componentType" : 5126,
            "count" : 50,
            "type" : "VEC3"
        },
        {
            "bufferView" : 19,
            "componentType" : 5126,
            "count" : 50,
            "type" : "VEC2"
        },
        {
            "bufferView" : 20,
            "componentType" : 5126,
            "count" : 50,
            "type" : "VEC4"
        },
        {
            "bufferView" : 21,
            "componentType" : 5123,
            "count" : 192,
            "type" : "SCALAR"
        },
        {
            "bufferView" : 23,
            "componentType" : 5126,
            "count" : 1131,
            "max" : [
                0.5302543640136719,
                2.0622873306274414,
                0.23177272081375122
            ],
            "min" : [
                -0.5104144811630249,
                0.810492217540741,
                -0.551598846912384
            ],
            "type" : "VEC3"
        },
        {
            "bufferView" : 24,
            "componentType" : 5126,
            "count" : 1131,
            "type" : "VEC3"
        },
        {
            "bufferView" : 25,
            "componentType" : 5126,
            "count" : 1131,
            "type" : "VEC2"
        },
        {
            "bufferView" : 26,
            "componentType" : 5126,
            "count" : 1131,
            "type" : "VEC4"
        },
        {
            "bufferView" : 27,
            "componentType" : 5123,
            "count" : 6489,
            "type" : "SCALAR"
        }
    ],
    "bufferViews" : [
        {
            "buffer" : 0,
            "byteLength" : 295596,
            "byteOffset" : 0
        },
        {
            "buffer" : 0,
            "byteLength" : 295596,
            "byteOffset" : 295596
        },
        {
            "buffer" : 0,
            "byteLength" : 197064,
            "byteOffset" : 591192
        },
        {
            "buffer" : 0,
            "byteLength" : 394128,
            "byteOffset" : 788256
        },
        {
            "buffer" : 0,
            "byteLength" : 197064,
            "byteOffset" : 1182384
        },
        {
            "buffer" : 0,
            "byteLength" : 394128,
            "byteOffset" : 1379448
        },
        {
            "buffer" : 0,
            "byteLength" : 80292,
            "byteOffset" : 1773576
        },
        {
            "buffer" : 0,
            "byteLength" : 2296,
            "byteOffset" : 1853868
        },
        {
            "buffer" : 0,
            "byteLength" : 2448,
            "byteOffset" : 1856164
        },
        {
            "buffer" : 0,
            "byteLength" : 2448,
            "byteOffset" : 1858612
        },
        {
            "buffer" : 0,
            "byteLength" : 1632,
            "byteOffset" : 1861060
        },
        {
            "buffer" : 0,
            "byteLength" : 2400,
            "byteOffset" : 1862692
        },
        {
            "buffer" : 0,
            "byteLength" : 171,
            "byteOffset" : 1865092
        },
        {
            "buffer" : 0,
            "byteLength" : 4464,
            "byteOffset" : 1865264
        },
        {
            "buffer" : 0,
            "byteLength" : 4464,
            "byteOffset" : 1869728
        },
        {
            "buffer" : 0,
            "byteLength" : 2976,
            "byteOffset" : 1874192
        },
        {
            "buffer" : 0,
            "byteLength" : 4416,
            "byteOffset" : 1877168
        },
        {
            "buffer" : 0,
            "byteLength" : 600,
            "byteOffset" : 1881584
        },
        {
            "buffer" : 0,
            "byteLength" : 600,
            "byteOffset" : 1882184
        },
        {
            "buffer" : 0,
            "byteLength" : 400,
            "byteOffset" : 1882784
        },
        {
            "buffer" : 0,
            "byteLength" : 800,
            "byteOffset" : 1883184
        },
        {
            "buffer" : 0,
            "byteLength" : 384,
            "byteOffset" : 1883984
        },
        {
            "buffer" : 0,
            "byteLength" : 1294,
            "byteOffset" : 1884368
        },
        {
            "buffer" : 0,
            "byteLength" : 13572,
            "byteOffset" : 1885664
        },
        {
            "buffer" : 0,
            "byteLength" : 13572,
            "byteOffset" : 1899236
        },
        {
            "buffer" : 0,
            "byteLength" : 9048,
            "byteOffset" : 1912808
        },
        {
            "buffer" : 0,
            "byteLength" : 18096,
            "byteOffset" : 1921856
        },
        {
            "buffer" : 0,
            "byteLength" : 12978,
            "byteOffset" : 1939952
        }
    ],
    "buffers" : [
        {
            "byteLength" : 1952932,
            "uri" : "data:application/octet-stream;base64,"
        }
    ]
}
