{
    "asset" : {
        "generator" : "Khronos glTF Blender I/O v1.2.75",
        "version" : "2.0"
    },
    "scene" : 0,
    "scenes" : [
        {
            "name" : "Scene",
            "nodes" : [
                0,
                1,
                2,
                3,
                4
            ]
        }
    ],
    "nodes" : [
        {
            "mesh" : 0,
            "name" : "head",
            "translation" : [
                -0.005981923080980778,
                1.7168446779251099,
                -0.034455884248018265
            ]
        },
        {
            "mesh" : 1,
            "name" : "eyebrows",
            "translation" : [
                -0.005981923080980778,
                1.7168446779251099,
                -0.034455884248018265
            ]
        },
        {
            "mesh" : 2,
            "name" : "eyelashes",
            "translation" : [
                -0.005981923080980778,
                1.7168446779251099,
                -0.034455884248018265
            ]
        },
        {
            "mesh" : 3,
            "name" : "eye",
            "translation" : [
                -0.005981923080980778,
                1.7168446779251099,
                -0.034455884248018265
            ]
        },
        {
            "mesh" : 4,
            "name" : "hair_retopo"
        }
    ],
    "materials" : [
        {
            "doubleSided" : true,
            "emissiveFactor" : [
                1,
                1,
                1
            ],
            "emissiveTexture" : {
                "index" : 0,
                "texCoord" : 0
            },
            "name" : "body",
            "pbrMetallicRoughness" : {}
        },
        {
            "doubleSided" : true,
            "emissiveFactor" : [
                1,
                1,
                1
            ],
            "emissiveTexture" : {
                "index" : 1,
                "texCoord" : 0
            },
            "name" : "eyebrows",
            "pbrMetallicRoughness" : {}
        },
        {
            "doubleSided" : true,
            "emissiveFactor" : [
                1,
                1,
                1
            ],
            "emissiveTexture" : {
                "index" : 2,
                "texCoord" : 0
            },
            "name" : "eyelashes.001",
            "pbrMetallicRoughness" : {}
        },
        {
            "doubleSided" : true,
            "emissiveFactor" : [
                1,
                1,
                1
            ],
            "emissiveTexture" : {
                "index" : 3,
                "texCoord" : 0
            },
            "name" : "eyes",
            "pbrMetallicRoughness" : {}
        },
        {
            "doubleSided" : true,
            "emissiveFactor" : [
                1,
                1,
                1
            ],
            "emissiveTexture" : {
                "index" : 4,
                "texCoord" : 0
            },
            "name" : "Material",
            "pbrMetallicRoughness" : {}
        }
    ],
    "meshes" : [
        {
            "name" : "Plane",
            "primitives" : [
                {
                    "attributes" : {
                        "POSITION" : 0,
                        "NORMAL" : 1,
                        "TEXCOORD_0" : 2,
                        "COLOR_0" : 3
                    },
                    "indices" : 4,
                    "material" : 0
                }
            ]
        },
        {
            "name" : "Plane.001",
            "primitives" : [
                {
                    "attributes" : {
                        "POSITION" : 5,
                        "NORMAL" : 6,
                        "TEXCOORD_0" : 7
                    },
                    "indices" : 8,
                    "material" : 1
                }
            ]
        },
        {
            "name" : "Plane.002",
            "primitives" : [
                {
                    "attributes" : {
                        "POSITION" : 9,
                        "NORMAL" : 10,
                        "TEXCOORD_0" : 11
                    },
                    "indices" : 12,
                    "material" : 2
                }
            ]
        },
        {
            "name" : "Plane.003",
            "primitives" : [
                {
                    "attributes" : {
                        "POSITION" : 13,
                        "NORMAL" : 14,
                        "TEXCOORD_0" : 15
                    },
                    "indices" : 16,
                    "material" : 3
                }
            ]
        },
        {
            "name" : "Cylinder",
            "primitives" : [
                {
                    "attributes" : {
                        "POSITION" : 17,
                        "NORMAL" : 18,
                        "TEXCOORD_0" : 19
                    },
                    "indices" : 20,
                    "material" : 4
                }
            ]
        }
    ],
    "textures" : [
        {
            "source" : 0
        },
        {
            "source" : 1
        },
        {
            "source" : 2
        },
        {
            "source" : 3
        },
        {
            "source" : 1
        }
    ],
    "images" : [
        {
            "bufferView" : 5,
            "mimeType" : "image/png",
            "name" : "body"
        },
        {
            "bufferView" : 10,
            "mimeType" : "image/png",
            "name" : "hair"
        },
        {
            "bufferView" : 15,
            "mimeType" : "image/png",
            "name" : "eyelashes"
        },
        {
            "bufferView" : 20,
            "mimeType" : "image/png",
            "name" : "eyes"
        }
    ],
    "accessors" : [
        {
            "bufferView" : 0,
            "componentType" : 5126,
            "count" : 18167,
            "max" : [
                0.6134334206581116,
                0.2872757911682129,
                0.6585153341293335
            ],
            "min" : [
                -0.5928274393081665,
                -4.14089822769165,
                -0.3959147036075592
            ],
            "type" : "VEC3"
        },
        {
            "bufferView" : 1,
            "componentType" : 5126,
            "count" : 18167,
            "type" : "VEC3"
        },
        {
            "bufferView" : 2,
            "componentType" : 5126,
            "count" : 18167,
            "type" : "VEC2"
        },
        {
            "bufferView" : 3,
            "componentType" : 5126,
            "count" : 18167,
            "type" : "VEC4"
        },
        {
            "bufferView" : 4,
            "componentType" : 5123,
            "count" : 28830,
            "type" : "SCALAR"
        },
        {
            "bufferView" : 6,
            "componentType" : 5126,
            "count" : 800,
            "max" : [
                0.22841550409793854,
                -0.0549798309803009,
                0.27575093507766724
            ],
            "min" : [
                -0.22841550409793854,
                -0.10399135202169418,
                0.13739044964313507
            ],
            "type" : "VEC3"
        },
        {
            "bufferView" : 7,
            "componentType" : 5126,
            "count" : 800,
            "type" : "VEC3"
        },
        {
            "bufferView" : 8,
            "componentType" : 5126,
            "count" : 800,
            "type" : "VEC2"
        },
        {
            "bufferView" : 9,
            "componentType" : 5123,
            "count" : 1200,
            "type" : "SCALAR"
        },
        {
            "bufferView" : 11,
            "componentType" : 5126,
            "count" : 372,
            "max" : [
                0.24013152718544006,
                -0.1062139943242073,
                0.24162539839744568
            ],
            "min" : [
                -0.24013152718544006,
                -0.19615855813026428,
                0.1278200000524521
            ],
            "type" : "VEC3"
        },
        {
            "bufferView" : 12,
            "componentType" : 5126,
            "count" : 372,
            "type" : "VEC3"
        },
        {
            "bufferView" : 13,
            "componentType" : 5126,
            "count" : 372,
            "type" : "VEC2"
        },
        {
            "bufferView" : 14,
            "componentType" : 5123,
            "count" : 2208,
            "type" : "SCALAR"
        },
        {
            "bufferView" : 16,
            "componentType" : 5126,
            "count" : 50,
            "max" : [
                0.13816910982131958,
                -0.12675316631793976,
                0.21623773872852325
            ],
            "min" : [
                -0.13816910982131958,
                -0.1910739690065384,
                0.19284334778785706
            ],
            "type" : "VEC3"
        },
        {
            "bufferView" : 17,
            "componentType" : 5126,
            "count" : 50,
            "type" : "VEC3"
        },
        {
            "bufferView" : 18,
            "componentType" : 5126,
            "count" : 50,
            "type" : "VEC2"
        },
        {
            "bufferView" : 19,
            "componentType" : 5123,
            "count" : 192,
            "type" : "SCALAR"
        },
        {
            "bufferView" : 21,
            "componentType" : 5126,
            "count" : 1008,
            "max" : [
                0.47731196880340576,
                2.0622873306274414,
                0.2752532362937927
            ],
            "min" : [
                -0.47731196880340576,
                1.0585500001907349,
                -0.551598846912384
            ],
            "type" : "VEC3"
        },
        {
            "bufferView" : 22,
            "componentType" : 5126,
            "count" : 1008,
            "type" : "VEC3"
        },
        {
            "bufferView" : 23,
            "componentType" : 5126,
            "count" : 1008,
            "type" : "VEC2"
        },
        {
            "bufferView" : 24,
            "componentType" : 5123,
            "count" : 5772,
            "type" : "SCALAR"
        }
    ],
    "bufferViews" : [
        {
            "buffer" : 0,
            "byteLength" : 218004,
            "byteOffset" : 0
        },
        {
            "buffer" : 0,
            "byteLength" : 218004,
            "byteOffset" : 218004
        },
        {
            "buffer" : 0,
            "byteLength" : 145336,
            "byteOffset" : 436008
        },
        {
            "buffer" : 0,
            "byteLength" : 290672,
            "byteOffset" : 581344
        },
        {
            "buffer" : 0,
            "byteLength" : 57660,
            "byteOffset" : 872016
        },
        {
            "buffer" : 0,
            "byteLength" : 4932,
            "byteOffset" : 929676
        },
        {
            "buffer" : 0,
            "byteLength" : 9600,
            "byteOffset" : 934608
        },
        {
            "buffer" : 0,
            "byteLength" : 9600,
            "byteOffset" : 944208
        },
        {
            "buffer" : 0,
            "byteLength" : 6400,
            "byteOffset" : 953808
        },
        {
            "buffer" : 0,
            "byteLength" : 2400,
            "byteOffset" : 960208
        },
        {
            "buffer" : 0,
            "byteLength" : 205,
            "byteOffset" : 962608
        },
        {
            "buffer" : 0,
            "byteLength" : 4464,
            "byteOffset" : 962816
        },
        {
            "buffer" : 0,
            "byteLength" : 4464,
            "byteOffset" : 967280
        },
        {
            "buffer" : 0,
            "byteLength" : 2976,
            "byteOffset" : 971744
        },
        {
            "buffer" : 0,
            "byteLength" : 4416,
            "byteOffset" : 974720
        },
        {
            "buffer" : 0,
            "byteLength" : 102,
            "byteOffset" : 979136
        },
        {
            "buffer" : 0,
            "byteLength" : 600,
            "byteOffset" : 979240
        },
        {
            "buffer" : 0,
            "byteLength" : 600,
            "byteOffset" : 979840
        },
        {
            "buffer" : 0,
            "byteLength" : 400,
            "byteOffset" : 980440
        },
        {
            "buffer" : 0,
            "byteLength" : 384,
            "byteOffset" : 980840
        },
        {
            "buffer" : 0,
            "byteLength" : 1153,
            "byteOffset" : 981224
        },
        {
            "buffer" : 0,
            "byteLength" : 12096,
            "byteOffset" : 982380
        },
        {
            "buffer" : 0,
            "byteLength" : 12096,
            "byteOffset" : 994476
        },
        {
            "buffer" : 0,
            "byteLength" : 8064,
            "byteOffset" : 1006572
        },
        {
            "buffer" : 0,
            "byteLength" : 11544,
            "byteOffset" : 1014636
        }
    ],
    "buffers" : [
        {
            "byteLength" : 1026180,
            "uri" : "data:application/octet-stream;base64,"
        }
    ]
}
