{
    "asset" : {
        "generator" : "Khronos glTF Blender I/O v1.2.75",
        "version" : "2.0"
    },
    "scene" : 0,
    "scenes" : [
        {
            "name" : "Scene",
            "nodes" : [
                0,
                1,
                2,
                3,
                4,
                5,
                6,
                7,
                8,
                9,
                10,
                11
            ]
        }
    ],
    "nodes" : [
        {
            "mesh" : 0,
            "name" : "Grid"
        },
        {
            "mesh" : 1,
            "name" : "Sphere"
        },
        {
            "mesh" : 2,
            "name" : "Cylinder"
        },
        {
            "mesh" : 3,
            "name" : "Torus",
            "translation" : [
                0,
                -32.306880950927734,
                -13.018715858459473
            ]
        },
        {
            "mesh" : 4,
            "name" : "Torus.001",
            "translation" : [
                4.103377819061279,
                -32.306880950927734,
                -13.018715858459473
            ]
        },
        {
            "mesh" : 5,
            "name" : "Torus.002",
            "translation" : [
                7.798722267150879,
                -32.306880950927734,
                -13.018715858459473
            ]
        },
        {
            "mesh" : 6,
            "name" : "Torus.003",
            "rotation" : [
                0,
                0,
                -0.7071067690849304,
                0.7071068286895752
            ],
            "translation" : [
                -93.91656494140625,
                17.237834930419922,
                10.280452728271484
            ]
        },
        {
            "mesh" : 7,
            "name" : "Torus.004",
            "rotation" : [
                0,
                0,
                -0.7071067690849304,
                0.7071068286895752
            ],
            "translation" : [
                -68.19928741455078,
                58.107688903808594,
                13.744429588317871
            ]
        },
        {
            "mesh" : 8,
            "name" : "Torus.005",
            "rotation" : [
                0.5,
                0.5,
                -0.4999999403953552,
                0.5
            ],
            "translation" : [
                13.25096321105957,
                47.6217155456543,
                5.63810920715332
            ]
        },
        {
            "mesh" : 9,
            "name" : "Torus.006",
            "rotation" : [
                0.6532814502716064,
                0.6532814502716064,
                0.2705981433391571,
                -0.2705981135368347
            ],
            "translation" : [
                13.25096321105957,
                51.605857849121094,
                12.135746002197266
            ]
        },
        {
            "mesh" : 10,
            "name" : "Torus.007",
            "translation" : [
                -14.133158683776855,
                -7.08277702331543,
                -13.018715858459473
            ]
        },
        {
            "mesh" : 11,
            "name" : "Torus.008",
            "rotation" : [
                0,
                0,
                -0.7071067690849304,
                0.7071068286895752
            ],
            "translation" : [
                -96.35865020751953,
                53.95138168334961,
                -6.324044704437256
            ]
        }
    ],
    "materials" : [
        {
            "doubleSided" : true,
            "emissiveFactor" : [
                1,
                1,
                1
            ],
            "emissiveTexture" : {
                "index" : 0,
                "texCoord" : 0
            },
            "name" : "walls",
            "pbrMetallicRoughness" : {}
        },
        {
            "doubleSided" : true,
            "emissiveFactor" : [
                0.006488860584795475,
                0.6391865611076355,
                1
            ],
            "name" : "floaty",
            "pbrMetallicRoughness" : {}
        },
        {
            "doubleSided" : true,
            "emissiveFactor" : [
                0.07325467467308044,
                1,
                0.24197284877300262
            ],
            "name" : "grass",
            "pbrMetallicRoughness" : {}
        },
        {
            "doubleSided" : true,
            "emissiveFactor" : [
                1,
                0,
                0.07264549285173416
            ],
            "name" : "ring",
            "pbrMetallicRoughness" : {}
        },
        {
            "doubleSided" : true,
            "emissiveFactor" : [
                1,
                0.16480965912342072,
                0.04555031657218933
            ],
            "name" : "tunnel",
            "pbrMetallicRoughness" : {}
        }
    ],
    "meshes" : [
        {
            "name" : "Grid",
            "primitives" : [
                {
                    "attributes" : {
                        "POSITION" : 0,
                        "NORMAL" : 1,
                        "TEXCOORD_0" : 2
                    },
                    "indices" : 3,
                    "material" : 0
                }
            ]
        },
        {
            "name" : "Sphere",
            "primitives" : [
                {
                    "attributes" : {
                        "POSITION" : 4,
                        "NORMAL" : 5,
                        "TEXCOORD_0" : 6
                    },
                    "indices" : 7,
                    "material" : 1
                }
            ]
        },
        {
            "name" : "Cylinder",
            "primitives" : [
                {
                    "attributes" : {
                        "POSITION" : 8,
                        "NORMAL" : 9,
                        "TEXCOORD_0" : 10
                    },
                    "indices" : 11,
                    "material" : 2
                }
            ]
        },
        {
            "name" : "Torus",
            "primitives" : [
                {
                    "attributes" : {
                        "POSITION" : 12,
                        "NORMAL" : 13,
                        "TEXCOORD_0" : 14
                    },
                    "indices" : 15,
                    "material" : 3
                }
            ]
        },
        {
            "name" : "Torus.001",
            "primitives" : [
                {
                    "attributes" : {
                        "POSITION" : 16,
                        "NORMAL" : 17,
                        "TEXCOORD_0" : 18
                    },
                    "indices" : 15,
                    "material" : 3
                }
            ]
        },
        {
            "name" : "Torus.002",
            "primitives" : [
                {
                    "attributes" : {
                        "POSITION" : 19,
                        "NORMAL" : 20,
                        "TEXCOORD_0" : 21
                    },
                    "indices" : 15,
                    "material" : 3
                }
            ]
        },
        {
            "name" : "Torus.003",
            "primitives" : [
                {
                    "attributes" : {
                        "POSITION" : 22,
                        "NORMAL" : 23,
                        "TEXCOORD_0" : 24
                    },
                    "indices" : 15,
                    "material" : 3
                }
            ]
        },
        {
            "name" : "Torus.004",
            "primitives" : [
                {
                    "attributes" : {
                        "POSITION" : 25,
                        "NORMAL" : 26,
                        "TEXCOORD_0" : 27
                    },
                    "indices" : 15,
                    "material" : 3
                }
            ]
        },
        {
            "name" : "Torus.005",
            "primitives" : [
                {
                    "attributes" : {
                        "POSITION" : 28,
                        "NORMAL" : 29,
                        "TEXCOORD_0" : 30
                    },
                    "indices" : 31,
                    "material" : 3
                }
            ]
        },
        {
            "name" : "Torus.006",
            "primitives" : [
                {
                    "attributes" : {
                        "POSITION" : 32,
                        "NORMAL" : 33,
                        "TEXCOORD_0" : 34
                    },
                    "indices" : 31,
                    "material" : 3
                }
            ]
        },
        {
            "name" : "Torus.007",
            "primitives" : [
                {
                    "attributes" : {
                        "POSITION" : 35,
                        "NORMAL" : 36,
                        "TEXCOORD_0" : 37
                    },
                    "indices" : 38,
                    "material" : 4
                }
            ]
        },
        {
            "name" : "Torus.008",
            "primitives" : [
                {
                    "attributes" : {
                        "POSITION" : 39,
                        "NORMAL" : 40,
                        "TEXCOORD_0" : 41
                    },
                    "indices" : 38,
                    "material" : 4
                }
            ]
        }
    ],
    "textures" : [
        {
            "source" : 0
        }
    ],
    "images" : [
        {
            "bufferView" : 4,
            "mimeType" : "image/png",
            "name" : "underwater"
        }
    ],
    "accessors" : [
        {
            "bufferView" : 0,
            "componentType" : 5126,
            "count" : 6156,
            "max" : [
                20,
                99.35305786132812,
                20
            ],
            "min" : [
                -20,
                0,
                -20
            ],
            "type" : "VEC3"
        },
        {
            "bufferView" : 1,
            "componentType" : 5126,
            "count" : 6156,
            "type" : "VEC3"
        },
        {
            "bufferView" : 2,
            "componentType" : 5126,
            "count" : 6156,
            "type" : "VEC2"
        },
        {
            "bufferView" : 3,
            "componentType" : 5123,
            "count" : 15954,
            "type" : "SCALAR"
        },
        {
            "bufferView" : 5,
            "componentType" : 5126,
            "count" : 720,
            "max" : [
                19.694517135620117,
                46.203128814697266,
                18.6303653717041
            ],
            "min" : [
                6.447222709655762,
                29.587711334228516,
                11.63276481628418
            ],
            "type" : "VEC3"
        },
        {
            "bufferView" : 6,
            "componentType" : 5126,
            "count" : 720,
            "type" : "VEC3"
        },
        {
            "bufferView" : 7,
            "componentType" : 5126,
            "count" : 720,
            "type" : "VEC2"
        },
        {
            "bufferView" : 8,
            "componentType" : 5123,
            "count" : 1008,
            "type" : "SCALAR"
        },
        {
            "bufferView" : 9,
            "componentType" : 5126,
            "count" : 80,
            "max" : [
                0.6738944053649902,
                44.08540344238281,
                15.556145668029785
            ],
            "min" : [
                -15.828617095947266,
                37.70574188232422,
                -0.9463663101196289
            ],
            "type" : "VEC3"
        },
        {
            "bufferView" : 10,
            "componentType" : 5126,
            "count" : 80,
            "type" : "VEC3"
        },
        {
            "bufferView" : 11,
            "componentType" : 5126,
            "count" : 80,
            "type" : "VEC2"
        },
        {
            "bufferView" : 12,
            "componentType" : 5123,
            "count" : 132,
            "type" : "SCALAR"
        },
        {
            "bufferView" : 13,
            "componentType" : 5126,
            "count" : 256,
            "max" : [
                0.8318153619766235,
                85.6092758178711,
                4.159037113189697
            ],
            "min" : [
                -0.8318000435829163,
                77.29119873046875,
                -4.159037113189697
            ],
            "type" : "VEC3"
        },
        {
            "bufferView" : 14,
            "componentType" : 5126,
            "count" : 256,
            "type" : "VEC3"
        },
        {
            "bufferView" : 15,
            "componentType" : 5126,
            "count" : 256,
            "type" : "VEC2"
        },
        {
            "bufferView" : 16,
            "componentType" : 5123,
            "count" : 384,
            "type" : "SCALAR"
        },
        {
            "bufferView" : 17,
            "componentType" : 5126,
            "count" : 256,
            "max" : [
                0.8318153619766235,
                85.6092758178711,
                4.159037113189697
            ],
            "min" : [
                -0.8318000435829163,
                77.29119873046875,
                -4.159037113189697
            ],
            "type" : "VEC3"
        },
        {
            "bufferView" : 18,
            "componentType" : 5126,
            "count" : 256,
            "type" : "VEC3"
        },
        {
            "bufferView" : 19,
            "componentType" : 5126,
            "count" : 256,
            "type" : "VEC2"
        },
        {
            "bufferView" : 20,
            "componentType" : 5126,
            "count" : 256,
            "max" : [
                0.8318153619766235,
                85.6092758178711,
                4.159037113189697
            ],
            "min" : [
                -0.8318000435829163,
                77.29119873046875,
                -4.159037113189697
            ],
            "type" : "VEC3"
        },
        {
            "bufferView" : 21,
            "componentType" : 5126,
            "count" : 256,
            "type" : "VEC3"
        },
        {
            "bufferView" : 22,
            "componentType" : 5126,
            "count" : 256,
            "type" : "VEC2"
        },
        {
            "bufferView" : 23,
            "componentType" : 5126,
            "count" : 256,
            "max" : [
                0.8318153619766235,
                85.6092758178711,
                4.159037113189697
            ],
            "min" : [
                -0.8318000435829163,
                77.29119873046875,
                -4.159037113189697
            ],
            "type" : "VEC3"
        },
        {
            "bufferView" : 24,
            "componentType" : 5126,
            "count" : 256,
            "type" : "VEC3"
        },
        {
            "bufferView" : 25,
            "componentType" : 5126,
            "count" : 256,
            "type" : "VEC2"
        },
        {
            "bufferView" : 26,
            "componentType" : 5126,
            "count" : 256,
            "max" : [
                0.8318153619766235,
                85.6092758178711,
                4.159037113189697
            ],
            "min" : [
                -0.8318000435829163,
                77.29119873046875,
                -4.159037113189697
            ],
            "type" : "VEC3"
        },
        {
            "bufferView" : 27,
            "componentType" : 5126,
            "count" : 256,
            "type" : "VEC3"
        },
        {
            "bufferView" : 28,
            "componentType" : 5126,
            "count" : 256,
            "type" : "VEC2"
        },
        {
            "bufferView" : 29,
            "componentType" : 5126,
            "count" : 256,
            "max" : [
                0.831807553768158,
                4.159027099609375,
                4.1590375900268555
            ],
            "min" : [
                -0.8318078517913818,
                -4.159049987792969,
                -4.159036636352539
            ],
            "type" : "VEC3"
        },
        {
            "bufferView" : 30,
            "componentType" : 5126,
            "count" : 256,
            "type" : "VEC3"
        },
        {
            "bufferView" : 31,
            "componentType" : 5126,
            "count" : 256,
            "type" : "VEC2"
        },
        {
            "bufferView" : 32,
            "componentType" : 5123,
            "count" : 384,
            "type" : "SCALAR"
        },
        {
            "bufferView" : 33,
            "componentType" : 5126,
            "count" : 256,
            "max" : [
                0.831807553768158,
                4.159027099609375,
                4.1590375900268555
            ],
            "min" : [
                -0.8318078517913818,
                -4.159049987792969,
                -4.159036636352539
            ],
            "type" : "VEC3"
        },
        {
            "bufferView" : 34,
            "componentType" : 5126,
            "count" : 256,
            "type" : "VEC3"
        },
        {
            "bufferView" : 35,
            "componentType" : 5126,
            "count" : 256,
            "type" : "VEC2"
        },
        {
            "bufferView" : 36,
            "componentType" : 5126,
            "count" : 256,
            "max" : [
                16.03672218322754,
                87.39872741699219,
                5.948491096496582
            ],
            "min" : [
                2.223346710205078,
                75.50174713134766,
                -5.948487758636475
            ],
            "type" : "VEC3"
        },
        {
            "bufferView" : 37,
            "componentType" : 5126,
            "count" : 256,
            "type" : "VEC3"
        },
        {
            "bufferView" : 38,
            "componentType" : 5126,
            "count" : 256,
            "type" : "VEC2"
        },
        {
            "bufferView" : 39,
            "componentType" : 5123,
            "count" : 384,
            "type" : "SCALAR"
        },
        {
            "bufferView" : 40,
            "componentType" : 5126,
            "count" : 256,
            "max" : [
                16.03672218322754,
                87.39872741699219,
                5.948491096496582
            ],
            "min" : [
                2.223346710205078,
                75.50174713134766,
                -5.948487758636475
            ],
            "type" : "VEC3"
        },
        {
            "bufferView" : 41,
            "componentType" : 5126,
            "count" : 256,
            "type" : "VEC3"
        },
        {
            "bufferView" : 42,
            "componentType" : 5126,
            "count" : 256,
            "type" : "VEC2"
        }
    ],
    "bufferViews" : [
        {
            "buffer" : 0,
            "byteLength" : 73872,
            "byteOffset" : 0
        },
        {
            "buffer" : 0,
            "byteLength" : 73872,
            "byteOffset" : 73872
        },
        {
            "buffer" : 0,
            "byteLength" : 49248,
            "byteOffset" : 147744
        },
        {
            "buffer" : 0,
            "byteLength" : 31908,
            "byteOffset" : 196992
        },
        {
            "buffer" : 0,
            "byteLength" : 226,
            "byteOffset" : 228900
        },
        {
            "buffer" : 0,
            "byteLength" : 8640,
            "byteOffset" : 229128
        },
        {
            "buffer" : 0,
            "byteLength" : 8640,
            "byteOffset" : 237768
        },
        {
            "buffer" : 0,
            "byteLength" : 5760,
            "byteOffset" : 246408
        },
        {
            "buffer" : 0,
            "byteLength" : 2016,
            "byteOffset" : 252168
        },
        {
            "buffer" : 0,
            "byteLength" : 960,
            "byteOffset" : 254184
        },
        {
            "buffer" : 0,
            "byteLength" : 960,
            "byteOffset" : 255144
        },
        {
            "buffer" : 0,
            "byteLength" : 640,
            "byteOffset" : 256104
        },
        {
            "buffer" : 0,
            "byteLength" : 264,
            "byteOffset" : 256744
        },
        {
            "buffer" : 0,
            "byteLength" : 3072,
            "byteOffset" : 257008
        },
        {
            "buffer" : 0,
            "byteLength" : 3072,
            "byteOffset" : 260080
        },
        {
            "buffer" : 0,
            "byteLength" : 2048,
            "byteOffset" : 263152
        },
        {
            "buffer" : 0,
            "byteLength" : 768,
            "byteOffset" : 265200
        },
        {
            "buffer" : 0,
            "byteLength" : 3072,
            "byteOffset" : 265968
        },
        {
            "buffer" : 0,
            "byteLength" : 3072,
            "byteOffset" : 269040
        },
        {
            "buffer" : 0,
            "byteLength" : 2048,
            "byteOffset" : 272112
        },
        {
            "buffer" : 0,
            "byteLength" : 3072,
            "byteOffset" : 274160
        },
        {
            "buffer" : 0,
            "byteLength" : 3072,
            "byteOffset" : 277232
        },
        {
            "buffer" : 0,
            "byteLength" : 2048,
            "byteOffset" : 280304
        },
        {
            "buffer" : 0,
            "byteLength" : 3072,
            "byteOffset" : 282352
        },
        {
            "buffer" : 0,
            "byteLength" : 3072,
            "byteOffset" : 285424
        },
        {
            "buffer" : 0,
            "byteLength" : 2048,
            "byteOffset" : 288496
        },
        {
            "buffer" : 0,
            "byteLength" : 3072,
            "byteOffset" : 290544
        },
        {
            "buffer" : 0,
            "byteLength" : 3072,
            "byteOffset" : 293616
        },
        {
            "buffer" : 0,
            "byteLength" : 2048,
            "byteOffset" : 296688
        },
        {
            "buffer" : 0,
            "byteLength" : 3072,
            "byteOffset" : 298736
        },
        {
            "buffer" : 0,
            "byteLength" : 3072,
            "byteOffset" : 301808
        },
        {
            "buffer" : 0,
            "byteLength" : 2048,
            "byteOffset" : 304880
        },
        {
            "buffer" : 0,
            "byteLength" : 768,
            "byteOffset" : 306928
        },
        {
            "buffer" : 0,
            "byteLength" : 3072,
            "byteOffset" : 307696
        },
        {
            "buffer" : 0,
            "byteLength" : 3072,
            "byteOffset" : 310768
        },
        {
            "buffer" : 0,
            "byteLength" : 2048,
            "byteOffset" : 313840
        },
        {
            "buffer" : 0,
            "byteLength" : 3072,
            "byteOffset" : 315888
        },
        {
            "buffer" : 0,
            "byteLength" : 3072,
            "byteOffset" : 318960
        },
        {
            "buffer" : 0,
            "byteLength" : 2048,
            "byteOffset" : 322032
        },
        {
            "buffer" : 0,
            "byteLength" : 768,
            "byteOffset" : 324080
        },
        {
            "buffer" : 0,
            "byteLength" : 3072,
            "byteOffset" : 324848
        },
        {
            "buffer" : 0,
            "byteLength" : 3072,
            "byteOffset" : 327920
        },
        {
            "buffer" : 0,
            "byteLength" : 2048,
            "byteOffset" : 330992
        }
    ],
    "buffers" : [
        {
            "byteLength" : 333040,
            "uri" : "data:application/octet-stream;base64,"
        }
    ]
}
