{
    "asset" : {
        "generator" : "Khronos glTF Blender I/O v1.2.75",
        "version" : "2.0"
    },
    "scene" : 0,
    "scenes" : [
        {
            "name" : "Scene",
            "nodes" : [
                0,
                1
            ]
        }
    ],
    "nodes" : [
        {
            "mesh" : 0,
            "name" : "Grid"
        },
        {
            "mesh" : 1,
            "name" : "Cylinder",
            "scale" : [
                0.5075873136520386,
                3.5071754455566406,
                0.5075873136520386
            ],
            "translation" : [
                0,
                2.8647613525390625,
                0
            ]
        }
    ],
    "materials" : [
        {
            "doubleSided" : true,
            "emissiveFactor" : [
                1,
                1,
                1
            ],
            "emissiveTexture" : {
                "index" : 0,
                "texCoord" : 0
            },
            "name" : "Material.001",
            "pbrMetallicRoughness" : {}
        },
        {
            "doubleSided" : true,
            "emissiveFactor" : [
                0.42922598123550415,
                0.42922598123550415,
                0.42922598123550415
            ],
            "name" : "pole",
            "pbrMetallicRoughness" : {}
        }
    ],
    "meshes" : [
        {
            "name" : "Grid",
            "primitives" : [
                {
                    "attributes" : {
                        "POSITION" : 0,
                        "NORMAL" : 1,
                        "TEXCOORD_0" : 2
                    },
                    "indices" : 3,
                    "material" : 0
                }
            ]
        },
        {
            "name" : "Cylinder",
            "primitives" : [
                {
                    "attributes" : {
                        "POSITION" : 4,
                        "NORMAL" : 5,
                        "TEXCOORD_0" : 6
                    },
                    "indices" : 7,
                    "material" : 1
                }
            ]
        }
    ],
    "textures" : [
        {
            "source" : 0
        }
    ],
    "images" : [
        {
            "bufferView" : 4,
            "mimeType" : "image/png",
            "name" : "ground"
        }
    ],
    "accessors" : [
        {
            "bufferView" : 0,
            "componentType" : 5126,
            "count" : 1252,
            "max" : [
                13.764958381652832,
                13.061864852905273,
                61.4991455078125
            ],
            "min" : [
                -9.00053882598877,
                -0.4919118881225586,
                -13.361927032470703
            ],
            "type" : "VEC3"
        },
        {
            "bufferView" : 1,
            "componentType" : 5126,
            "count" : 1252,
            "type" : "VEC3"
        },
        {
            "bufferView" : 2,
            "componentType" : 5126,
            "count" : 1252,
            "type" : "VEC2"
        },
        {
            "bufferView" : 3,
            "componentType" : 5123,
            "count" : 1956,
            "type" : "SCALAR"
        },
        {
            "bufferView" : 5,
            "componentType" : 5126,
            "count" : 48,
            "max" : [
                1,
                1,
                1
            ],
            "min" : [
                -1,
                -1,
                -1
            ],
            "type" : "VEC3"
        },
        {
            "bufferView" : 6,
            "componentType" : 5126,
            "count" : 48,
            "type" : "VEC3"
        },
        {
            "bufferView" : 7,
            "componentType" : 5126,
            "count" : 48,
            "type" : "VEC2"
        },
        {
            "bufferView" : 8,
            "componentType" : 5123,
            "count" : 84,
            "type" : "SCALAR"
        }
    ],
    "bufferViews" : [
        {
            "buffer" : 0,
            "byteLength" : 15024,
            "byteOffset" : 0
        },
        {
            "buffer" : 0,
            "byteLength" : 15024,
            "byteOffset" : 15024
        },
        {
            "buffer" : 0,
            "byteLength" : 10016,
            "byteOffset" : 30048
        },
        {
            "buffer" : 0,
            "byteLength" : 3912,
            "byteOffset" : 40064
        },
        {
            "buffer" : 0,
            "byteLength" : 149,
            "byteOffset" : 43976
        },
        {
            "buffer" : 0,
            "byteLength" : 576,
            "byteOffset" : 44128
        },
        {
            "buffer" : 0,
            "byteLength" : 576,
            "byteOffset" : 44704
        },
        {
            "buffer" : 0,
            "byteLength" : 384,
            "byteOffset" : 45280
        },
        {
            "buffer" : 0,
            "byteLength" : 168,
            "byteOffset" : 45664
        }
    ],
    "buffers" : [
        {
            "byteLength" : 45832,
            "uri" : "data:application/octet-stream;base64,"
        }
    ]
}
