{
    "asset" : {
        "generator" : "Khronos glTF Blender I/O v1.2.75",
        "version" : "2.0"
    },
    "scene" : 0,
    "scenes" : [
        {
            "name" : "Scene",
            "nodes" : [
                0
            ]
        }
    ],
    "nodes" : [
        {
            "mesh" : 0,
            "name" : "Grid",
            "scale" : [
                2.046726703643799,
                2.046726703643799,
                2.046726703643799
            ]
        }
    ],
    "materials" : [
        {
            "doubleSided" : true,
            "emissiveFactor" : [
                1,
                1,
                1
            ],
            "emissiveTexture" : {
                "index" : 0,
                "texCoord" : 0
            },
            "name" : "Material.001",
            "pbrMetallicRoughness" : {}
        }
    ],
    "meshes" : [
        {
            "name" : "Grid",
            "primitives" : [
                {
                    "attributes" : {
                        "POSITION" : 0,
                        "NORMAL" : 1,
                        "TEXCOORD_0" : 2
                    },
                    "indices" : 3,
                    "material" : 0
                }
            ]
        }
    ],
    "textures" : [
        {
            "source" : 0
        }
    ],
    "images" : [
        {
            "bufferView" : 4,
            "mimeType" : "image/png",
            "name" : "ground"
        }
    ],
    "accessors" : [
        {
            "bufferView" : 0,
            "componentType" : 5126,
            "count" : 993,
            "max" : [
                5.22801399230957,
                4.025587558746338,
                13.187373161315918
            ],
            "min" : [
                -5.22801399230957,
                -0.4875076413154602,
                -13.187373161315918
            ],
            "type" : "VEC3"
        },
        {
            "bufferView" : 1,
            "componentType" : 5126,
            "count" : 993,
            "type" : "VEC3"
        },
        {
            "bufferView" : 2,
            "componentType" : 5126,
            "count" : 993,
            "type" : "VEC2"
        },
        {
            "bufferView" : 3,
            "componentType" : 5123,
            "count" : 1638,
            "type" : "SCALAR"
        }
    ],
    "bufferViews" : [
        {
            "buffer" : 0,
            "byteLength" : 11916,
            "byteOffset" : 0
        },
        {
            "buffer" : 0,
            "byteLength" : 11916,
            "byteOffset" : 11916
        },
        {
            "buffer" : 0,
            "byteLength" : 7944,
            "byteOffset" : 23832
        },
        {
            "buffer" : 0,
            "byteLength" : 3276,
            "byteOffset" : 31776
        },
        {
            "buffer" : 0,
            "byteLength" : 149,
            "byteOffset" : 35052
        }
    ],
    "buffers" : [
        {
            "byteLength" : 35204,
            "uri" : "data:application/octet-stream;base64,"
        }
    ]
}
